<?xml version="1.0" standalone="no"?>
<!DOCTYPE svg PUBLIC "-//W3C//DTD SVG 20010904//EN" "http://www.w3.org/TR/2001/REC-SVG-20010904/DTD/svg10.dtd">
<!-- Created using Krita: https://krita.org -->
<svg xmlns="http://www.w3.org/2000/svg" 
    xmlns:xlink="http://www.w3.org/1999/xlink"
    xmlns:krita="http://krita.org/namespaces/svg/krita"
    xmlns:sodipodi="http://sodipodi.sourceforge.net/DTD/sodipodi-0.dtd"
    width="30.72pt"
    height="30.72pt"
    viewBox="0 0 30.72 30.72">
<defs/>
<path id="shape0" transform="translate(3.85052196779081, 3.86754855559997)" fill="none" stroke="#ffffff" stroke-width="1.2" stroke-linecap="square" stroke-linejoin="bevel" d="M0 2.2173L0.0487956 22.9973L20.5824 22.9972C22.1214 22.9513 22.8975 22.1698 22.9107 20.6527C22.9239 19.1357 22.9524 12.2514 22.9964 0L2.28864 0.00525701C0.775206 -0.0662613 0.012326 0.671087 0 2.2173Z"/><path id="shape1" transform="translate(15.36, 5.84999515144162)" fill="none" stroke="#ffffff" stroke-width="1.2" stroke-linecap="square" stroke-linejoin="miter" stroke-miterlimit="2" d="M0 0L0 3.76784"/><path id="shape2" transform="translate(21.1240039476196, 15.36)" fill="none" stroke="#ffffff" stroke-width="1.2" stroke-linecap="square" stroke-linejoin="miter" stroke-miterlimit="2" d="M3.72913 0L0 0"/><path id="shape3" transform="translate(15.36, 21.1839637613138)" fill="none" stroke="#ffffff" stroke-width="1.2" stroke-linecap="square" stroke-linejoin="miter" stroke-miterlimit="2" d="M0 0L0 3.83983"/><path id="shape4" transform="translate(5.72291250355024, 15.36)" fill="none" stroke="#ffffff" stroke-width="1.2" stroke-linecap="square" stroke-linejoin="miter" stroke-miterlimit="2" d="M0 0L3.83766 0"/><ellipse id="shape5" transform="translate(12.4886350174137, 12.4666731939297)" rx="2.87136498258632" ry="2.89332680607032" cx="2.87136498258632" cy="2.89332680607032" fill="none" stroke="#ffffff" stroke-width="1.2" stroke-linecap="square" stroke-linejoin="bevel"/><circle id="shape6" transform="translate(11.52, 11.52)" r="0.6" cx="0.6" cy="0.6" fill="none" stroke="#ffffff" stroke-width="1.2" stroke-linecap="square" stroke-linejoin="bevel"/><circle id="shape0" transform="matrix(0.999999969154748 0 0 0.999999969154748 17.9900241374781 11.5426509900269)" r="0.6" cx="0.6" cy="0.6" fill="none" stroke="#ffffff" stroke-width="1.2" stroke-linecap="square" stroke-linejoin="bevel"/><circle id="shape01" transform="matrix(1.00000001319374 0 0 1.00000001319374 11.5249878991699 17.9714114067261)" r="0.6" cx="0.6" cy="0.6" fill="none" stroke="#ffffff" stroke-width="1.2" stroke-linecap="square" stroke-linejoin="bevel"/><circle id="shape02" transform="matrix(0.999999982348489 0 0 0.999999982348489 17.9950121220119 17.9940623970518)" r="0.6" cx="0.6" cy="0.6" fill="none" stroke="#ffffff" stroke-width="1.2" stroke-linecap="square" stroke-linejoin="bevel"/>
</svg>
